<?xml version="1.0" encoding="utf-8"?>
<!-- Generator: Adobe Illustrator 27.0.0, SVG Export Plug-In . SVG Version: 6.00 Build 0)  -->
<svg version="1.1" id="Layer_1" xmlns="http://www.w3.org/2000/svg" xmlns:xlink="http://www.w3.org/1999/xlink" x="0px" y="0px"
	 viewBox="0 0 42.61 42.01" style="enable-background:new 0 0 42.61 42.01;" xml:space="preserve">
<style type="text/css">
	.st0{fill:#FFFFFF;}
	.st1{fill:#B933AD;}
</style>
<circle cx="21.06" cy="20.9" r="20.48"/>
<path class="st0" d="M22.6,16.56c0-0.87-0.27-1.4-0.73-1.8c-0.47-0.33-1.2-0.47-1.94-0.47c-1.14,0-2.54,0.33-2.54,1.74
	c0,1.6,3.21,1.74,5.34,2.47c3.74,1.34,5.01,3.34,5.01,5.95c0,5.14-5.01,7.62-9.69,7.62c-4.94,0-9.35-2.27-9.09-7.75h6.41
	c0,1.2,0.27,1.87,0.8,2.4c0.6,0.47,1.34,0.53,2.4,0.53c1.27,0,2.87-0.67,2.87-2.07c0-1.54-2.2-1.8-5.14-2.74
	c-2.61-0.87-5.14-2.27-5.14-5.81c0-4.81,4.68-7.08,9.02-7.08c4.54,0,8.68,1.74,8.55,7.01C28.75,16.56,22.6,16.56,22.6,16.56z"/>
<circle class="st1" cx="30.74" cy="29.62" r="2.44"/>
</svg>
