<?xml version="1.0" encoding="utf-8"?>
<!-- Generator: Adobe Illustrator 27.0.0, SVG Export Plug-In . SVG Version: 6.00 Build 0)  -->
<svg version="1.1" id="Layer_1" xmlns="http://www.w3.org/2000/svg" xmlns:xlink="http://www.w3.org/1999/xlink" x="0px" y="0px"
	 viewBox="0 0 42 42" style="enable-background:new 0 0 42 42;" xml:space="preserve">
<style type="text/css">
	.st0{fill:none;stroke:#000000;stroke-width:3;stroke-miterlimit:10;}
	.st1{fill:#B933AD;}
</style>
<circle class="st0" cx="21" cy="21" r="19.3"/>
<path d="M22.28,16.35c0-0.88-0.27-1.41-0.74-1.82c-0.47-0.33-1.21-0.47-1.96-0.47c-1.15,0-2.56,0.33-2.56,1.76
	c0,1.61,3.24,1.76,5.39,2.49c3.77,1.35,5.06,3.37,5.06,6c0,5.19-5.06,7.69-9.78,7.69c-4.98,0-9.44-2.29-9.17-7.82h6.47
	c0,1.21,0.27,1.89,0.81,2.42c0.61,0.47,1.35,0.53,2.42,0.53c1.28,0,2.9-0.68,2.9-2.09c0-1.55-2.22-1.82-5.19-2.76
	c-2.63-0.88-5.19-2.29-5.19-5.86c0-4.85,4.72-7.14,9.1-7.14c4.58,0,8.76,1.76,8.63,7.07C28.49,16.35,22.28,16.35,22.28,16.35z"/>
<circle class="st1" cx="30.5" cy="29.53" r="2.46"/>
</svg>
