<?xml version="1.0" encoding="utf-8"?>
<!-- Generator: Adobe Illustrator 24.0.0, SVG Export Plug-In . SVG Version: 6.00 Build 0)  -->
<svg version="1.1" id="Layer_1" xmlns="http://www.w3.org/2000/svg" xmlns:xlink="http://www.w3.org/1999/xlink" x="0px" y="0px"
	 viewBox="0 0 44.1 36.4" style="enable-background:new 0 0 44.1 36.4;" xml:space="preserve">
<style type="text/css">
	.st0{fill:#010101;}
	.st1{fill:#B933AD;}
</style>
<g>
	<path class="st0" d="M22.4,12c0-1.3-0.4-2.1-1.1-2.7c-0.7-0.5-1.8-0.7-2.9-0.7c-1.7,0-3.8,0.5-3.8,2.6c0,2.4,4.8,2.6,8,3.7
		c5.6,2,7.5,5,7.5,8.9c0,7.7-7.5,11.4-14.5,11.4c-7.4,0-14-3.4-13.6-11.6h9.6c0,1.8,0.4,2.8,1.2,3.6c0.9,0.7,2,0.8,3.6,0.8
		c1.9,0,4.3-1,4.3-3.1c0-2.3-3.3-2.7-7.7-4.1c-3.9-1.3-7.7-3.4-7.7-8.7c0-7.2,7-10.6,13.5-10.6c6.8,0,13,2.6,12.8,10.5
		C31.6,12,22.4,12,22.4,12z"/>
	<path class="st1" d="M32.2,24.5h10.2l-2,9.9H30.1L32.2,24.5z"/>
</g>
</svg>
