<?xml version="1.0" encoding="utf-8"?>
<!-- Generator: Adobe Illustrator 23.1.1, SVG Export Plug-In . SVG Version: 6.00 Build 0)  -->
<svg version="1.1" id="Layer_1" xmlns="http://www.w3.org/2000/svg" xmlns:xlink="http://www.w3.org/1999/xlink" x="0px" y="0px"
	 viewBox="0 0 71.36 36.97" style="enable-background:new 0 0 71.36 36.97;" xml:space="preserve">
<style type="text/css">
	.st0{fill:#FF0000;}
</style>
<g>
	<path d="M22.35,12.1c0.04-1.3-0.4-2.12-1.12-2.66c-0.72-0.54-1.75-0.72-2.88-0.72c-1.66,0-3.82,0.5-3.82,2.61
		c0,2.43,4.81,2.56,7.96,3.69c5.58,1.98,7.47,5.04,7.47,8.86c0,7.74-7.51,11.38-14.49,11.38c-7.38,0-14.04-3.38-13.63-11.56h9.58
		c0,1.75,0.41,2.83,1.22,3.65c0.85,0.72,2.02,0.81,3.64,0.81c1.94,0,4.32-0.99,4.32-3.1c0-2.34-3.28-2.66-7.74-4.14
		c-3.91-1.3-7.69-3.37-7.69-8.73c0-7.24,7.02-10.57,13.5-10.57c6.84,0,13,2.56,12.82,10.48H22.35z"/>
	<path d="M57.99,22.31c-0.58,3.29-3.1,12.96-16.47,12.96c-9.31,0-13.81-6.03-13.81-14.62c0-10.39,6.48-19.03,17.41-19.03
		c7.15,0,13.54,3.1,13.72,12.73h-9.36c0.09-3.01-1.35-4.72-4.41-4.72c-5.49,0-7.47,6.3-7.47,10.84c0,2.65,0.63,6.79,5.17,6.79
		c3.1,0,4.86-2.11,5.49-4.95H57.99z"/>
	<path class="st0" d="M59.85,24.61h10.2l-2.05,9.9h-10.2L59.85,24.61z"/>
</g>
</svg>
