<?xml version="1.0" encoding="utf-8"?>
<!-- Generator: Adobe Illustrator 23.1.1, SVG Export Plug-In . SVG Version: 6.00 Build 0)  -->
<svg version="1.1" id="Layer_1" xmlns="http://www.w3.org/2000/svg" xmlns:xlink="http://www.w3.org/1999/xlink" x="0px" y="0px"
	 viewBox="0 0 230.62 36.97" style="enable-background:new 0 0 230.62 36.97;" xml:space="preserve">
<style type="text/css">
	.st0{fill:#FF0000;}
</style>
<g>
	<path d="M23.11,12.36c0.04-1.3-0.4-2.12-1.12-2.66c-0.72-0.54-1.75-0.72-2.88-0.72c-1.66,0-3.82,0.5-3.82,2.61
		c0,2.43,4.81,2.56,7.96,3.69c5.58,1.98,7.47,5.04,7.47,8.86c0,7.74-7.51,11.38-14.49,11.38c-7.38,0-14.04-3.38-13.63-11.56h9.58
		c0,1.75,0.41,2.83,1.22,3.65c0.85,0.72,2.02,0.81,3.64,0.81c1.94,0,4.32-0.99,4.32-3.1c0-2.34-3.28-2.66-7.74-4.14
		c-3.91-1.3-7.69-3.37-7.69-8.73c0-7.24,7.02-10.57,13.5-10.57c6.84,0,13,2.56,12.82,10.48H23.11z"/>
	<path d="M32.7,2.64h8.91l-2.43,11.75h0.09c1.62-2.29,4.45-3.56,6.93-3.56c4.09,0,7.6,1.71,7.6,6.3c0,1.04-0.27,2.75-0.63,4.45
		l-2.83,13.18h-8.91l2.29-10.71c0.27-1.35,0.72-2.92,0.72-3.87c0-1.49-1.08-2.25-2.52-2.25c-2.83,0-3.78,2.02-4.32,4.45l-2.61,12.37
		h-8.91L32.7,2.64z"/>
	<path d="M52.63,18.48c1.4-6.21,6.21-7.65,11.92-7.65c4.23,0,11.34,0.54,11.34,6.21c0,3.65-2.83,14.13-2.83,15.66
		c0,0.86,0.13,1.53,0.36,2.07h-8.73c-0.23-0.72-0.36-1.49-0.31-2.25h-0.09c-1.57,1.89-4.59,2.83-7.2,2.83c-4,0-7.56-1.75-7.56-6.21
		c0-6.16,4.59-7.83,11.29-8.32c2.52-0.18,6.52,0.18,6.52-2.7c0-1.62-1.44-2.02-2.79-2.02c-1.8,0-3.06,0.63-3.55,2.38H52.63z
		 M61.27,30.09c3.01,0,4.23-2.21,4.77-5.67c-1.44,0.72-3.1,0.9-4.72,1.04c-1.48,0.13-2.88,0.9-2.88,2.61
		C58.44,29.68,59.83,30.09,61.27,30.09z"/>
	<path d="M100.91,34.77h-9.27l-0.45-13.63H91.1l-6.03,13.63h-9.22l-2.34-23.35h8.77l0.68,13.18h0.09l5.71-13.18h8.5l0.54,13.18h0.09
		l5.76-13.18h9.45L100.91,34.77z"/>
	<path d="M109.65,11.41h8.59l-0.67,2.97h0.09c1.71-2.12,4.41-3.56,7.24-3.56c4.1,0,7.6,1.71,7.6,6.3c0,1.04-0.27,2.75-0.63,4.45
		l-2.83,13.18h-8.91l2.29-10.71c0.27-1.35,0.72-2.92,0.72-3.87c0-1.49-1.08-2.25-2.52-2.25c-2.83,0-3.78,2.02-4.32,4.45l-2.61,12.37
		h-8.91L109.65,11.41z"/>
	<path d="M160.63,22.57c-0.58,3.29-3.11,12.96-16.47,12.96c-9.31,0-13.81-6.03-13.81-14.62c0-10.39,6.48-19.03,17.41-19.03
		c7.16,0,13.54,3.1,13.72,12.73h-9.36c0.09-3.01-1.35-4.72-4.41-4.72c-5.49,0-7.47,6.3-7.47,10.84c0,2.65,0.63,6.79,5.17,6.79
		c3.11,0,4.86-2.11,5.49-4.95H160.63z"/>
	<path d="M160.94,11.41h8.64l-0.76,3.65h0.09c1.58-2.48,4.5-4.23,6.79-4.23c1.48,0,2.34,0.09,3.15,0.36l-1.67,7.88
		c-1.08-0.41-2.29-0.58-3.42-0.58c-3.78,0-5.67,1.62-6.7,6.52l-2.03,9.76h-8.91L160.94,11.41z"/>
	<path d="M194.2,34.77h-8.64l0.72-2.97h-0.09c-1.93,2.29-4.5,3.55-7.51,3.55c-4.05,0-7.42-1.75-7.42-6.21
		c0-2.02,0.76-4.86,3.46-17.73h8.91l-2.61,12.19c-0.27,1.21-0.36,1.89-0.36,2.56c0,1.3,1.26,2.07,2.56,2.07c4,0,4.19-4.37,4.91-7.33
		l2.02-9.49h8.91L194.2,34.77z"/>
	<path d="M193.3,28.29l12.91-10.3v-0.09h-9.81l1.39-6.48h21.15l-1.44,6.79l-12.6,9.99v0.09h11.43l-1.35,6.48H191.9L193.3,28.29z"/>
	<path class="st0" d="M218.72,24.86h10.2l-2.05,9.9h-10.2L218.72,24.86z"/>
</g>
</svg>
