<?xml version="1.0" encoding="utf-8"?>
<!-- Generator: Adobe Illustrator 24.0.0, SVG Export Plug-In . SVG Version: 6.00 Build 0)  -->
<svg version="1.1" id="Layer_1" xmlns="http://www.w3.org/2000/svg" xmlns:xlink="http://www.w3.org/1999/xlink" x="0px" y="0px"
	 viewBox="0 0 142.6 36.6" style="enable-background:new 0 0 142.6 36.6;" xml:space="preserve">
<style type="text/css">
	.st0{fill:#010101;}
	.st1{fill:#ED2224;}
</style>
<g>
	<path class="st0" d="M22,12.7c0-1.3-0.4-2.1-1.1-2.7c-0.7-0.5-1.8-0.7-2.9-0.7c-1.7,0-3.8,0.5-3.8,2.6c0,2.4,4.8,2.6,8,3.7
		c5.6,2,7.5,5,7.5,8.9c0,7.7-7.5,11.4-14.5,11.4c-7.4,0-14-3.4-13.6-11.6H11c0,1.8,0.4,2.8,1.2,3.6c0.9,0.7,2,0.8,3.6,0.8
		c1.9,0,4.3-1,4.3-3.1c0-2.3-3.3-2.7-7.7-4.1c-3.9-1.3-7.7-3.4-7.7-8.7c0-7.2,7-10.6,13.5-10.6c6.8,0,13,2.6,12.8,10.5H22z"/>
	<path class="st0" d="M31.6,3h8.9L38,14.7h0.1c1.6-2.3,4.5-3.6,6.9-3.6c4.1,0,7.6,1.7,7.6,6.3c0,1-0.3,2.7-0.6,4.5l-2.8,13.2h-8.9
		l2.3-10.7c0.3-1.3,0.7-2.9,0.7-3.9c0-1.5-1.1-2.2-2.5-2.2c-2.8,0-3.8,2-4.3,4.5l-2.6,12.4h-8.9L31.6,3z"/>
	<path class="st0" d="M51.5,18.8c1.4-6.2,6.2-7.7,11.9-7.7c4.2,0,11.3,0.5,11.3,6.2c0,3.6-2.8,14.1-2.8,15.7c0,0.9,0.1,1.5,0.4,2.1
		h-8.7c-0.2-0.7-0.4-1.5-0.3-2.2h-0.1c-1.6,1.9-4.6,2.8-7.2,2.8c-4,0-7.6-1.8-7.6-6.2c0-6.2,4.6-7.8,11.3-8.3
		c2.5-0.2,6.5,0.2,6.5-2.7c0-1.6-1.4-2-2.8-2c-1.8,0-3.1,0.6-3.6,2.4H51.5z M60.1,30.4c3,0,4.2-2.2,4.8-5.7c-1.4,0.7-3.1,0.9-4.7,1
		c-1.5,0.1-2.9,0.9-2.9,2.6C57.3,30,58.7,30.4,60.1,30.4z"/>
	<path class="st0" d="M99.8,35.1h-9.3l-0.5-13.6H90l-6,13.6h-9.2l-2.3-23.4h8.8l0.7,13.2h0.1l5.7-13.2h8.5l0.5,13.2h0.1l5.8-13.2
		h9.4L99.8,35.1z"/>
	<path class="st0" d="M108.5,11.8h8.6l-0.7,3h0.1c1.7-2.1,4.4-3.6,7.2-3.6c4.1,0,7.6,1.7,7.6,6.3c0,1-0.3,2.7-0.6,4.5l-2.8,13.2H119
		l2.3-10.7c0.3-1.3,0.7-2.9,0.7-3.9c0-1.5-1.1-2.2-2.5-2.2c-2.8,0-3.8,2-4.3,4.5l-2.6,12.4h-8.9L108.5,11.8z"/>
	<path class="st1" d="M131.3,25.2h10.2l-2,9.9h-10.2L131.3,25.2z"/>
</g>
</svg>
